<svg width="75" height="136" viewBox="0 0 75 136" fill="none" xmlns="http://www.w3.org/2000/svg">
<path d="M0.5 9L6.71457 3.98383C9.15819 2.01142 10.38 1.02522 11.8312 0.512612C13.2824 0 14.8526 0 17.9929 0H56.5418C65.0066 0 69.2391 0 71.8688 2.62969C74.4985 5.25938 74.4985 9.49181 74.4985 17.9567V105.8C74.4985 113.939 74.4985 118.008 72.0033 120.613C69.5081 123.217 65.4423 123.391 57.3107 123.74L18.2306 125.415C14.975 125.554 13.3472 125.624 11.8749 126.237C10.4027 126.849 9.20604 127.955 6.81278 130.167L0.5 136V9Z" fill="white"/>
</svg>
