<svg width="84" height="145" viewBox="0 0 84 145" fill="none" xmlns="http://www.w3.org/2000/svg">
<path d="M0 13.4675L16.179 2.91597C18.3988 1.46827 19.5087 0.744423 20.7608 0.372212C22.0129 0 23.338 0 25.9881 0H65.5418C74.0066 0 78.2391 0 80.8688 2.62969C83.4985 5.25938 83.4985 9.49181 83.4985 17.9567V105.8C83.4985 113.939 83.4985 118.008 81.0033 120.613C78.5081 123.217 74.4423 123.391 66.3107 123.74L27.2892 125.412C24.0052 125.553 22.3631 125.623 20.8804 126.245C19.3976 126.867 18.197 127.99 15.7957 130.234L0 145V13.4675Z" fill="white"/>
</svg>
