<svg width="808" height="535" viewBox="0 0 808 535" fill="none" xmlns="http://www.w3.org/2000/svg">
<g clip-path="url(#clip0_100_1743)">
<mask id="mask0_100_1743" style="mask-type:alpha" maskUnits="userSpaceOnUse" x="-17" y="-22" width="719" height="556">
<rect x="-14.2807" y="-21.0243" width="78.5436" height="78.5436" stroke="white" stroke-width="0.79337"/>
<rect x="65.0564" y="-21.0243" width="78.5436" height="78.5436" stroke="white" stroke-width="0.79337"/>
<rect x="144.393" y="-21.0243" width="78.5436" height="78.5436" stroke="white" stroke-width="0.79337"/>
<rect x="223.73" y="-21.0243" width="78.5436" height="78.5436" stroke="white" stroke-width="0.79337"/>
<rect x="303.067" y="-21.0243" width="78.5436" height="78.5436" stroke="white" stroke-width="0.79337"/>
<rect x="382.404" y="-21.0243" width="78.5436" height="78.5436" stroke="white" stroke-width="0.79337"/>
<rect x="461.741" y="-21.0243" width="78.5436" height="78.5436" stroke="white" stroke-width="0.79337"/>
<rect x="541.078" y="-21.0243" width="78.5436" height="78.5436" stroke="white" stroke-width="0.79337"/>
<rect x="620.415" y="-21.0243" width="78.5436" height="78.5436" stroke="white" stroke-width="0.79337"/>
<rect x="-14.2806" y="58.3127" width="78.5436" height="78.5436" stroke="white" stroke-width="0.79337"/>
<rect x="65.0564" y="58.3127" width="78.5436" height="78.5436" stroke="white" stroke-width="0.79337"/>
<rect x="144.393" y="58.3127" width="78.5436" height="78.5436" stroke="white" stroke-width="0.79337"/>
<rect x="223.73" y="58.3127" width="78.5436" height="78.5436" stroke="white" stroke-width="0.79337"/>
<rect x="303.067" y="58.3127" width="78.5436" height="78.5436" stroke="white" stroke-width="0.79337"/>
<rect x="382.404" y="58.3127" width="78.5436" height="78.5436" stroke="white" stroke-width="0.79337"/>
<rect x="461.741" y="58.3127" width="78.5436" height="78.5436" stroke="white" stroke-width="0.79337"/>
<rect x="541.078" y="58.3127" width="78.5436" height="78.5436" stroke="white" stroke-width="0.79337"/>
<rect x="620.415" y="58.3127" width="78.5436" height="78.5436" stroke="white" stroke-width="0.79337"/>
<rect x="-14.2806" y="137.65" width="78.5436" height="78.5436" stroke="white" stroke-width="0.79337"/>
<rect x="65.0564" y="137.65" width="78.5436" height="78.5436" stroke="white" stroke-width="0.79337"/>
<rect x="144.393" y="137.65" width="78.5436" height="78.5436" stroke="white" stroke-width="0.79337"/>
<rect x="223.73" y="137.65" width="78.5436" height="78.5436" stroke="white" stroke-width="0.79337"/>
<rect x="303.067" y="137.65" width="78.5436" height="78.5436" stroke="white" stroke-width="0.79337"/>
<rect x="382.404" y="137.65" width="78.5436" height="78.5436" stroke="white" stroke-width="0.79337"/>
<rect x="461.741" y="137.65" width="78.5436" height="78.5436" stroke="white" stroke-width="0.79337"/>
<rect x="541.078" y="137.65" width="78.5436" height="78.5436" stroke="white" stroke-width="0.79337"/>
<rect x="620.415" y="137.65" width="78.5436" height="78.5436" stroke="white" stroke-width="0.79337"/>
<rect x="-14.2806" y="216.987" width="78.5436" height="78.5436" stroke="white" stroke-width="0.79337"/>
<rect x="65.0564" y="216.987" width="78.5436" height="78.5436" stroke="white" stroke-width="0.79337"/>
<rect x="144.393" y="216.987" width="78.5436" height="78.5436" stroke="white" stroke-width="0.79337"/>
<rect x="223.73" y="216.987" width="78.5436" height="78.5436" stroke="white" stroke-width="0.79337"/>
<rect x="303.067" y="216.987" width="78.5436" height="78.5436" stroke="white" stroke-width="0.79337"/>
<rect x="382.404" y="216.987" width="78.5436" height="78.5436" stroke="white" stroke-width="0.79337"/>
<rect x="461.741" y="216.987" width="78.5436" height="78.5436" stroke="white" stroke-width="0.79337"/>
<rect x="541.078" y="216.987" width="78.5436" height="78.5436" stroke="white" stroke-width="0.79337"/>
<rect x="620.415" y="216.987" width="78.5436" height="78.5436" stroke="white" stroke-width="0.79337"/>
<rect x="-14.2806" y="296.324" width="78.5436" height="78.5436" stroke="white" stroke-width="0.79337"/>
<rect x="65.0564" y="296.324" width="78.5436" height="78.5436" stroke="white" stroke-width="0.79337"/>
<rect x="144.393" y="296.324" width="78.5436" height="78.5436" stroke="white" stroke-width="0.79337"/>
<rect x="223.73" y="296.324" width="78.5436" height="78.5436" stroke="white" stroke-width="0.79337"/>
<rect x="303.067" y="296.324" width="78.5436" height="78.5436" stroke="white" stroke-width="0.79337"/>
<rect x="382.404" y="296.324" width="78.5436" height="78.5436" stroke="white" stroke-width="0.79337"/>
<rect x="461.741" y="296.324" width="78.5436" height="78.5436" stroke="white" stroke-width="0.79337"/>
<rect x="541.078" y="296.324" width="78.5436" height="78.5436" stroke="white" stroke-width="0.79337"/>
<rect x="620.415" y="296.324" width="78.5436" height="78.5436" stroke="white" stroke-width="0.79337"/>
<rect x="-14.2806" y="375.661" width="78.5436" height="78.5436" stroke="white" stroke-width="0.79337"/>
<rect x="65.0564" y="375.661" width="78.5436" height="78.5436" stroke="white" stroke-width="0.79337"/>
<rect x="144.393" y="375.661" width="78.5436" height="78.5436" stroke="white" stroke-width="0.79337"/>
<rect x="223.73" y="375.661" width="78.5436" height="78.5436" stroke="white" stroke-width="0.79337"/>
<rect x="303.067" y="375.661" width="78.5436" height="78.5436" stroke="white" stroke-width="0.79337"/>
<rect x="382.404" y="375.661" width="78.5436" height="78.5436" stroke="white" stroke-width="0.79337"/>
<rect x="461.741" y="375.661" width="78.5436" height="78.5436" stroke="white" stroke-width="0.79337"/>
<rect x="541.078" y="375.661" width="78.5436" height="78.5436" stroke="white" stroke-width="0.79337"/>
<rect x="620.415" y="375.661" width="78.5436" height="78.5436" stroke="white" stroke-width="0.79337"/>
<rect x="-14.2806" y="454.998" width="78.5436" height="78.5436" stroke="white" stroke-width="0.79337"/>
<rect x="65.0564" y="454.998" width="78.5436" height="78.5436" stroke="white" stroke-width="0.79337"/>
<rect x="144.393" y="454.998" width="78.5436" height="78.5436" stroke="white" stroke-width="0.79337"/>
<rect x="223.73" y="454.998" width="78.5436" height="78.5436" stroke="white" stroke-width="0.79337"/>
<rect x="303.067" y="454.998" width="78.5436" height="78.5436" stroke="white" stroke-width="0.79337"/>
<rect x="382.404" y="454.998" width="78.5436" height="78.5436" stroke="white" stroke-width="0.79337"/>
<rect x="461.741" y="454.998" width="78.5436" height="78.5436" stroke="white" stroke-width="0.79337"/>
<rect x="541.078" y="454.998" width="78.5436" height="78.5436" stroke="white" stroke-width="0.79337"/>
<rect x="620.415" y="454.998" width="78.5436" height="78.5436" stroke="white" stroke-width="0.79337"/>
</mask>
<g mask="url(#mask0_100_1743)">
<rect x="-33.8011" y="58" width="742.594" height="501.41" fill="url(#paint0_radial_100_1743)"/>
</g>
</g>
<defs>
<radialGradient id="paint0_radial_100_1743" cx="0" cy="0" r="1" gradientUnits="userSpaceOnUse" gradientTransform="translate(337.496 308.705) rotate(90) scale(250.705 371.297)">
<stop stop-color="white" stop-opacity="0.1"/>
<stop offset="1" stop-color="white" stop-opacity="0"/>
</radialGradient>
<clipPath id="clip0_100_1743">
<rect width="820" height="535" fill="white"/>
</clipPath>
</defs>
</svg>
